<svg width="512" height="512" viewBox="0 0 512 512" fill="none" xmlns="http://www.w3.org/2000/svg">
  <defs>
    <radialGradient id="garuda-bg" cx="0" cy="0" r="1" gradientUnits="userSpaceOnUse" gradientTransform="translate(172 142) rotate(46) scale(380)">
      <stop stop-color="#34211A"/>
      <stop offset="1" stop-color="#130E0D"/>
    </radialGradient>
    <linearGradient id="garuda-copper" x1="116" y1="102" x2="398" y2="408" gradientUnits="userSpaceOnUse">
      <stop stop-color="#FFD4A3"/>
      <stop offset="0.42" stop-color="#E19549"/>
      <stop offset="1" stop-color="#8F451A"/>
    </linearGradient>
    <linearGradient id="garuda-ivory" x1="220" y1="186" x2="286" y2="292" gradientUnits="userSpaceOnUse">
      <stop stop-color="#FFF6E7"/>
      <stop offset="1" stop-color="#F1D8AC"/>
    </linearGradient>
    <filter id="garuda-shadow" x="62" y="62" width="388" height="388" filterUnits="userSpaceOnUse" color-interpolation-filters="sRGB">
      <feDropShadow dx="0" dy="18" stdDeviation="18" flood-color="#000000" flood-opacity="0.24"/>
    </filter>
  </defs>

  <g filter="url(#garuda-shadow)">
    <circle cx="256" cy="256" r="184" fill="url(#garuda-bg)"/>
    <circle cx="256" cy="256" r="176" stroke="url(#garuda-copper)" stroke-width="6"/>
    <circle cx="256" cy="256" r="150" stroke="rgba(255,212,163,0.16)" stroke-width="2"/>
  </g>

  <g stroke="url(#garuda-copper)" stroke-width="8" stroke-linecap="round" stroke-linejoin="round">
    <path d="M256 118V92"/>
    <path d="M256 420V394"/>
    <path d="M118 256H92"/>
    <path d="M420 256H394"/>
    <circle cx="256" cy="256" r="122"/>
  </g>

  <g fill="#1A1412">
    <path d="M90 214C122 174 160 156 206 160C186 178 176 198 176 220C150 204 122 200 90 214Z"/>
    <path d="M422 214C390 174 352 156 306 160C326 178 336 198 336 220C362 204 390 200 422 214Z"/>
    <path d="M96 246C142 228 176 230 208 250C192 260 180 276 172 296C142 284 116 268 96 246Z"/>
    <path d="M416 246C370 228 336 230 304 250C320 260 332 276 340 296C370 284 396 268 416 246Z"/>
    <path d="M132 314C166 302 194 306 218 324C206 336 198 350 194 366C168 360 146 344 132 314Z"/>
    <path d="M380 314C346 302 318 306 294 324C306 336 314 350 318 366C344 360 366 344 380 314Z"/>
  </g>

  <g stroke="url(#garuda-copper)" stroke-width="10" stroke-linecap="round" stroke-linejoin="round">
    <path d="M142 212C170 176 206 156 242 156"/>
    <path d="M370 212C342 176 306 156 270 156"/>
    <path d="M156 252C192 234 222 238 246 258"/>
    <path d="M356 252C320 234 290 238 266 258"/>
    <path d="M184 320C210 310 230 316 246 332"/>
    <path d="M328 320C302 310 282 316 266 332"/>
  </g>

  <path d="M256 172C282 172 304 188 310 214L314 228L328 236C346 246 356 266 352 286C350 304 338 320 320 328L308 334L302 348C292 370 276 382 256 382C236 382 220 370 210 348L204 334L192 328C174 320 162 304 160 286C156 266 166 246 184 236L198 228L202 214C208 188 230 172 256 172Z" fill="#161111" stroke="url(#garuda-copper)" stroke-width="10"/>

  <path d="M256 194C278 194 294 210 294 230C294 244 286 256 272 264V292H240V264C226 256 218 244 218 230C218 210 234 194 256 194Z" fill="url(#garuda-ivory)"/>
  <path d="M256 218C264 218 270 224 270 232C270 240 264 246 256 246C248 246 242 240 242 232C242 224 248 218 256 218Z" fill="#D88434"/>
  <path d="M250 264H262" stroke="#D88434" stroke-width="8" stroke-linecap="round"/>
  <path d="M272 202L286 188" stroke="url(#garuda-copper)" stroke-width="8" stroke-linecap="round"/>
  <path d="M226 202L212 188" stroke="url(#garuda-copper)" stroke-width="8" stroke-linecap="round"/>
</svg>
